<?xml version="1.0" encoding="UTF-8" standalone="no"?>
<!-- Created with Inkscape (http://www.inkscape.org/) -->

<svg
   width="110.83493mm"
   height="110.83493mm"
   viewBox="0 0 110.83493 110.83493"
   version="1.1"
   id="svg1"
   inkscape:version="1.3 (0e150ed6c4, 2023-07-21)"
   sodipodi:docname="UI_FLC_icons.svg"
   xmlns:inkscape="http://www.inkscape.org/namespaces/inkscape"
   xmlns:sodipodi="http://sodipodi.sourceforge.net/DTD/sodipodi-0.dtd"
   xmlns="http://www.w3.org/2000/svg"
   xmlns:svg="http://www.w3.org/2000/svg">
  <sodipodi:namedview
     id="namedview1"
     pagecolor="#505050"
     bordercolor="#eeeeee"
     borderopacity="1"
     inkscape:showpageshadow="0"
     inkscape:pageopacity="0"
     inkscape:pagecheckerboard="0"
     inkscape:deskcolor="#505050"
     inkscape:document-units="mm"
     inkscape:zoom="1.4728924"
     inkscape:cx="305.18183"
     inkscape:cy="504.78908"
     inkscape:window-width="1920"
     inkscape:window-height="1009"
     inkscape:window-x="-8"
     inkscape:window-y="-8"
     inkscape:window-maximized="1"
     inkscape:current-layer="layer8" />
  <defs
     id="defs1">
    <inkscape:path-effect
       effect="fillet_chamfer"
       id="path-effect45"
       is_visible="true"
       lpeversion="1"
       nodesatellites_param="F,0,0,1,0,3,0,1 @ F,0,0,1,0,3,0,1 @ F,0,0,1,0,3,0,1 @ F,0,0,1,0,3,0,1 @ F,0,0,1,0,3,0,1 @ F,0,0,1,0,3,0,1 @ F,0,0,1,0,2,0,1"
       radius="0"
       unit="px"
       method="auto"
       mode="F"
       chamfer_steps="1"
       flexible="false"
       use_knot_distance="true"
       apply_no_radius="true"
       apply_with_radius="true"
       only_selected="false"
       hide_knots="false" />
    <inkscape:path-effect
       effect="fillet_chamfer"
       id="path-effect44"
       is_visible="true"
       lpeversion="1"
       nodesatellites_param="F,0,0,1,0,14,0,1 @ F,0,0,1,0,14,0,1 @ F,0,0,1,0,14,0,1 @ F,0,0,1,0,1,0,1 @ F,0,0,1,0,1,0,1 @ F,0,0,1,0,4,0,1 @ F,0,0,1,0,4,0,1 @ F,0,0,1,0,4,0,1 @ F,0,0,1,0,4,0,1 @ F,0,0,1,0,1,0,1 @ F,0,0,1,0,1,0,1 @ F,0,0,1,0,14,0,1"
       radius="0"
       unit="px"
       method="auto"
       mode="F"
       chamfer_steps="1"
       flexible="false"
       use_knot_distance="true"
       apply_no_radius="true"
       apply_with_radius="true"
       only_selected="false"
       hide_knots="false" />
    <inkscape:path-effect
       effect="fillet_chamfer"
       id="path-effect3"
       is_visible="true"
       lpeversion="1"
       nodesatellites_param="F,0,1,1,0,10.685074,0,1 @ F,0,1,1,0,10.685074,0,1 @ F,0,1,1,0,10.685074,0,1 @ F,0,0,1,0,0,0,1"
       radius="0"
       unit="px"
       method="auto"
       mode="F"
       chamfer_steps="1"
       flexible="false"
       use_knot_distance="true"
       apply_no_radius="true"
       apply_with_radius="true"
       only_selected="false"
       hide_knots="false" />
  </defs>
  <g
     inkscape:label="DROPDOWN"
     inkscape:groupmode="layer"
     id="layer1"
     style="display:none"
     sodipodi:insensitive="true"
     transform="translate(-33.05288,-82.272924)">
    <path
       d="m 81.939945,156.2188 28.330085,42.34022 a 7.149444,7.149444 180 0 0 11.884,0 l 28.33008,-42.34022 a 5.7068915,5.7068915 61.893352 0 0 -4.74307,-8.88051 H 116.21203 86.683019 a 5.7068911,5.7068911 118.10665 0 0 -4.743074,8.88051 z"
       style="fill:#3c6e71;stroke-width:0.314276"
       id="path3"
       inkscape:export-filename="dropdown_arrow.svg"
       inkscape:export-xdpi="96"
       inkscape:export-ydpi="96"
       inkscape:path-effect="#path-effect3"
       inkscape:original-d="m 75.997945,147.33829 40.214085,60.10124 40.21408,-60.10124 h -40.21408 z"
       transform="translate(-11.212028,-26.035464)" />
  </g>
  <g
     inkscape:groupmode="layer"
     id="layer2"
     inkscape:label="SETTINGS"
     style="display:none"
     sodipodi:insensitive="true"
     transform="translate(-33.05288,-82.272924)">
    <path
       d="m 104.55072,80.574927 -5.1e-4,5.17e-4 c -1.61235,0.0044 -3.22382,0.06613 -4.830715,0.185518 -1.606898,0.119392 -3.209571,0.296344 -4.804875,0.5302 -1.012614,0.175294 -2.021292,0.373667 -3.024622,0.594796 -0.001,2.25e-4 -0.0021,2.92e-4 -0.0031,5.17e-4 -0.578567,0.127541 -1.151439,0.279504 -1.72651,0.422196 -0.353011,0.237547 -0.6226,0.580727 -0.770495,0.980819 -0.01504,0.242905 0.01349,0.486564 0.08423,0.719336 0.107696,0.260222 0.17401,0.386729 0.244946,0.586527 0.03776,0.139364 0.05061,0.283679 0.08527,0.423747 0.171888,0.694623 0.329033,1.393021 0.424263,2.101164 0.114432,0.850936 0.173307,1.709435 0.1757,2.569869 0.0022,0.860521 -0.0519,1.719274 -0.161747,2.570902 -0.109846,0.851628 -0.275546,1.696226 -0.496094,2.528011 -0.220364,0.831683 -0.49483,1.647081 -0.821139,2.441195 -0.326308,0.794114 -0.704151,1.567224 -1.13223,2.313554 -0.428197,0.746355 -0.904891,1.463005 -1.425753,2.145605 -0.520861,0.6826 -1.086124,1.33088 -1.69292,1.94097 -0.606716,0.61024 -1.252457,1.17959 -1.932182,1.70429 -0.679725,0.5247 -1.393865,1.00523 -2.137854,1.43763 -0.74406,0.43223 -1.514421,0.81446 -2.306836,1.14515 -0.792414,0.3307 -1.607001,0.60966 -2.437577,0.83458 -0.830497,0.225 -1.673974,0.3951 -2.52491,0.50953 -0.850937,0.11443 -1.709435,0.1733 -2.569869,0.1757 -0.860441,0.002 -1.718834,-0.0514 -2.570386,-0.16123 -0.851553,-0.10986 -1.696296,-0.27561 -2.528011,-0.4961 -0.831804,-0.22029 -1.647479,-0.49486 -2.441712,-0.82114 -0.794232,-0.32627 -1.567106,-0.70467 -2.313553,-1.13274 -0.746437,-0.42807 -1.463021,-0.90383 -2.145606,-1.42472 -0.555844,-0.42418 -1.072481,-0.89768 -1.580782,-1.37925 -0.115901,-0.1098 -0.247422,-0.20152 -0.360702,-0.31419 -0.216766,-0.25106 -0.403978,-0.52544 -0.607714,-0.78703 -0.08945,-0.0854 -0.186492,-0.16235 -0.289905,-0.22996 -0.42139,-0.0853 -0.858897,-0.0335 -1.24902,0.14779 -0.417864,0.41661 -0.841128,0.82781 -1.247985,1.25522 -1.052624,1.22157 -2.061406,2.47965 -3.023588,3.77238 -0.962183,1.29273 -1.878024,2.62015 -2.746086,3.97909 -0.867989,1.359 -1.686808,2.74805 -2.455147,4.1646 -0.76834,1.41656 -1.486577,2.86076 -2.152324,4.32945 -0.633976,1.40932 -1.219114,2.8396 -1.754931,4.28811 -0.216508,0.5853 -0.388846,1.18604 -0.589112,1.77716 -0.158157,0.46682 -0.317129,0.93326 -0.465088,1.40353 -0.02604,0.28321 0.0074,0.56878 0.09819,0.83819 0.197907,0.25289 0.452781,0.45498 0.743623,0.58963 0.516991,0.1093 1.031804,0.22985 1.538408,0.38034 0.01687,0.005 0.0343,0.008 0.05116,0.0129 0.617225,0.18546 1.22499,0.40091 1.821077,0.64595 0.596084,0.24514 1.180047,0.51932 1.749247,0.82166 0.569416,0.30231 1.123289,0.63247 1.660364,0.98908 0.536771,0.35645 1.055706,0.73934 1.554944,1.1467 0.49943,0.40764 0.978514,0.83934 1.435571,1.29398 0.456955,0.45448 0.891524,0.93125 1.301729,1.42834 0.410284,0.49704 0.795894,1.01389 1.155486,1.54874 0.01713,0.0256 0.03418,0.0513 0.05116,0.077 0.01723,0.0254 0.03464,0.0509 0.05168,0.0765 0.01689,0.0256 0.03341,0.0517 0.05013,0.0775 0.01673,0.0256 0.03353,0.0513 0.05013,0.077 0.01658,0.0259 0.03318,0.052 0.04961,0.078 0.01658,0.0259 0.03273,0.0513 0.04909,0.0775 0.01645,0.0257 0.03281,0.0516 0.04909,0.0775 0.01634,0.0259 0.03287,0.0525 0.04909,0.0785 0.01619,0.0262 0.03203,0.0522 0.04806,0.0786 0.01609,0.026 0.03208,0.0524 0.04806,0.0786 0.01593,0.0263 0.03178,0.0526 0.04754,0.0791 0.0158,0.0262 0.03141,0.0527 0.04703,0.0791 0.0157,0.0264 0.03145,0.0527 0.04703,0.0791 0.01569,0.0264 0.03095,0.0527 0.04651,0.0791 0.01537,0.0266 0.0308,0.0534 0.04599,0.0801 0.01524,0.0264 0.03039,0.053 0.04548,0.0796 0.01514,0.0266 0.02993,0.0534 0.04496,0.0801 0.01504,0.0268 0.03004,0.0537 0.04496,0.0806 0.0152,0.0268 0.03039,0.0542 0.04547,0.0811 0.01465,0.0268 0.02941,0.0537 0.04393,0.0806 0.01472,0.027 0.02936,0.054 0.04393,0.0811 0.305418,0.56757 0.582635,1.14983 0.830957,1.7446 0.248317,0.59492 0.467497,1.20156 0.656291,1.81797 0.188634,0.61633 0.346561,1.24142 0.473873,1.87328 0.127531,0.6318 0.224395,1.26974 0.289388,1.91099 0.06486,0.64124 0.09802,1.2851 0.09974,1.9296 0.0023,0.86047 -0.05151,1.71931 -0.16123,2.5709 -0.109726,0.85159 -0.275157,1.69625 -0.495577,2.52801 -0.220366,0.83169 -0.49483,1.64708 -0.821139,2.4412 -0.326309,0.79411 -0.704668,1.56722 -1.132747,2.31355 -0.428196,0.74636 -0.904376,1.463 -1.425236,2.14561 -0.52086,0.6826 -1.086641,1.33087 -1.693437,1.94096 -0.606794,0.61022 -1.252381,1.17963 -1.932182,1.70429 -0.679801,0.52466 -1.393789,1.00477 -2.137854,1.43712 -0.743982,0.43226 -1.514497,0.81493 -2.306836,1.14567 -0.783794,0.32717 -1.589511,0.60209 -2.410705,0.82579 -0.009,0.002 -0.0174,0.006 -0.02635,0.009 -0.33318,0.0647 -0.672272,0.0885 -1.008207,0.13591 -0.442334,0.2589 -0.770486,0.67662 -0.918291,1.16892 0.208856,0.66151 0.435032,1.31687 0.664043,1.97146 0.17295,0.49435 0.317419,0.99863 0.501778,1.4888 0.552288,1.46841 1.15534,2.91758 1.808675,4.34495 0.67393,1.46494 1.399868,2.90534 2.176094,4.31757 0.776227,1.41222 1.602845,2.79654 2.478402,4.15065 0.8755,1.35411 1.799055,2.67619 2.768307,3.96358 0.969251,1.28739 1.984445,2.54062 3.043741,3.75636 0.07267,0.0755 0.149712,0.14656 0.222726,0.22169 0.416783,0.42887 0.844288,0.84686 1.272274,1.26452 0.163198,0.0454 0.33143,0.0701 0.500744,0.0734 0.176785,0.002 0.353127,-0.0184 0.524516,-0.062 0.0024,-10e-4 0.0048,-0.002 0.0072,-0.003 0.281203,-0.38227 0.55533,-0.77011 0.863513,-1.13119 0.174118,-0.17509 0.374103,-0.32063 0.554488,-0.48886 0.448225,-0.41804 0.892996,-0.84087 1.377694,-1.21492 0.679757,-0.52458 1.393847,-1.00482 2.137854,-1.43712 0.74401,-0.43233 1.51497,-0.81485 2.307352,-1.14566 0.792383,-0.33082 1.6065,-0.61006 2.437061,-0.8351 0.830495,-0.22499 1.673973,-0.39509 2.52491,-0.50952 0.850938,-0.11444 1.709435,-0.17279 2.569869,-0.17519 0.860474,-0.002 1.719308,0.0515 2.570903,0.16123 0.851595,0.10977 1.695728,0.27517 2.527494,0.49558 0.83178,0.22029 1.647576,0.49467 2.441712,0.82114 0.794135,0.32647 1.566697,0.70505 2.313037,1.13326 0.559318,0.32062 1.102679,0.66887 1.627807,1.04283 0.524946,0.37397 1.030983,0.7737 1.516704,1.19735 0.485797,0.42372 0.950753,0.87117 1.39268,1.34048 0.441879,0.46923 0.860441,0.95991 1.254187,1.4702 0.393686,0.51023 0.762031,1.03908 1.103808,1.58543 0.341984,0.54637 0.656849,1.10949 0.943612,1.68672 0.286708,0.57735 0.544894,1.16828 0.773596,1.77095 0.228752,0.60255 0.427761,1.21607 0.596346,1.83813 0.168466,0.62211 0.306722,1.25213 0.413411,1.88774 0.106768,0.63571 0.181887,1.27666 0.225826,1.91978 0.04395,0.64314 0.05651,1.28783 0.03721,1.93218 -0.01932,0.64434 -0.07004,1.28769 -0.152445,1.92702 -0.08236,0.63925 -0.19646,1.2741 -0.341064,1.90221 -0.04374,0.18987 -0.109298,0.3738 -0.158647,0.56223 -0.04193,0.1601 -0.08945,0.31852 -0.135392,0.4775 -0.08917,0.43126 -0.03639,0.87995 0.150378,1.27847 0.220316,0.30633 0.521326,0.54488 0.869198,0.68885 0.4246,0.10041 0.846869,0.21064 1.273307,0.30282 0.03463,0.007 0.06871,0.0174 0.103353,0.0248 0.982486,0.21076 1.969922,0.39949 2.961059,0.56637 1.596738,0.22513 3.200788,0.39326 4.808493,0.50384 1.60771,0.11059 3.21922,0.16356 4.83175,0.15917 1.61254,-0.005 3.22414,-0.0662 4.83123,-0.18552 1.60708,-0.11936 3.20989,-0.29633 4.80539,-0.5302 0.96888,-0.16772 1.93347,-0.35927 2.89388,-0.56896 0.0432,-0.009 0.087,-0.0163 0.13022,-0.0258 0.5994,-0.1321 1.19288,-0.28882 1.78853,-0.43718 0.0153,-0.011 0.0305,-0.0222 0.0455,-0.0336 0.12669,-0.12388 0.23667,-0.26391 0.32711,-0.41651 0.0905,-0.15257 0.16069,-0.31641 0.20877,-0.48731 0.0726,-0.3995 0.0244,-0.81169 -0.13849,-1.18339 -0.0183,-0.0504 -0.0441,-0.0978 -0.062,-0.14831 -0.0242,-0.0894 -0.0318,-0.18213 -0.0548,-0.27182 -0.1902,-0.74362 -0.35267,-1.49419 -0.45475,-2.25361 -0.11439,-0.85101 -0.17337,-1.70936 -0.1757,-2.56987 -0.002,-0.86039 0.0515,-1.71938 0.16123,-2.5709 0.10972,-0.85152 0.27522,-1.69579 0.49558,-2.52749 0.22028,-0.83178 0.49467,-1.64758 0.82114,-2.44172 0.32647,-0.79413 0.70506,-1.56669 1.13326,-2.31303 0.42806,-0.74642 0.90444,-1.46349 1.42524,-2.14613 0.5208,-0.68263 1.08619,-1.33082 1.69292,-1.94096 0.60676,-0.61013 1.25242,-1.17919 1.93218,-1.70377 0.67976,-0.52459 1.39385,-1.00484 2.13785,-1.43713 0.55747,-0.32394 1.13015,-0.62061 1.71669,-0.88831 0.58623,-0.26766 1.18563,-0.50629 1.79524,-0.71521 0.61002,-0.20888 1.22969,-0.3878 1.85725,-0.53588 0.62719,-0.14807 1.26148,-0.26499 1.90015,-0.35088 0.6387,-0.0857 1.28143,-0.14008 1.92546,-0.16278 0.64413,-0.0231 1.2889,-0.0149 1.93218,0.0253 0.64339,0.0405 1.28451,0.11263 1.92082,0.21601 0.63631,0.1033 1.26719,0.23794 1.89032,0.40307 0.62301,0.16487 1.23748,0.36057 1.84123,0.58601 0.60388,0.22527 1.19619,0.48041 1.77509,0.76378 0.57896,0.28357 1.14404,0.59532 1.6924,0.93431 0.54833,0.33874 1.07966,0.70421 1.59215,1.09502 0.51239,0.39097 1.00484,0.80709 1.4764,1.24644 0.0331,0.0308 0.0617,0.0661 0.0946,0.0971 0.43572,0.4115 0.85728,0.83824 1.25367,1.28778 0.17008,0.0483 0.34573,0.074 0.52245,0.0765 0.17679,0.002 0.35313,-0.0184 0.52452,-0.062 0.0757,-0.0252 0.14995,-0.0549 0.22221,-0.0889 0.38775,-0.38582 0.77871,-0.76862 1.15703,-1.16375 0.0279,-0.0291 0.0574,-0.0566 0.0853,-0.0858 1.05262,-1.22157 2.06089,-2.48017 3.02307,-3.7729 0.96218,-1.29273 1.87854,-2.61962 2.7466,-3.97857 0.0458,-0.0714 0.0918,-0.14289 0.13643,-0.21497 0.0458,-0.0714 0.0907,-0.14319 0.13591,-0.21498 0.0458,-0.0714 0.0907,-0.14361 0.13487,-0.216 0.0449,-0.0718 0.0898,-0.14359 0.13384,-0.21601 0.0449,-0.0718 0.0892,-0.14413 0.13333,-0.21652 0.0442,-0.0725 0.0896,-0.14501 0.13281,-0.21808 0.0442,-0.0724 0.088,-0.14466 0.13126,-0.21756 0.0442,-0.0725 0.0883,-0.14504 0.13074,-0.21859 0.043,-0.0729 0.0874,-0.14518 0.12971,-0.21859 0.0431,-0.073 0.0863,-0.14571 0.12867,-0.21911 0.043,-0.0732 0.0858,-0.14682 0.12867,-0.22014 0.0426,-0.0732 0.0847,-0.14671 0.12713,-0.22014 0.0424,-0.0735 0.085,-0.14744 0.12712,-0.22118 0.0422,-0.0735 0.0841,-0.14707 0.12609,-0.22065 0.0418,-0.0739 0.0839,-0.14766 0.12454,-0.22221 0.0416,-0.074 0.0829,-0.14783 0.12351,-0.22221 0.0416,-0.0741 0.0832,-0.14769 0.12299,-0.22273 0.0414,-0.0739 0.0822,-0.14834 0.12196,-0.22324 0.0407,-0.0745 0.0816,-0.14924 0.12144,-0.22428 0.0406,-0.0743 0.0812,-0.14886 0.12092,-0.22375 0.0406,-0.0744 0.0805,-0.14942 0.11937,-0.2248 0.0407,-0.0745 0.081,-0.14926 0.11989,-0.22479 0.0398,-0.075 0.0795,-0.14992 0.11834,-0.22531 0.0397,-0.075 0.0784,-0.15046 0.1173,-0.22582 0.039,-0.0755 0.0789,-0.14991 0.11679,-0.22583 0.0389,-0.0754 0.0778,-0.15094 0.11576,-0.22686 0.039,-0.0755 0.0768,-0.15145 0.11472,-0.22738 0.0388,-0.0753 0.0769,-0.15082 0.1142,-0.22686 0.038,-0.0759 0.0758,-0.15192 0.11369,-0.22789 0.038,-0.0757 0.0749,-0.15232 0.11214,-0.22841 0.0372,-0.0765 0.075,-0.15254 0.11214,-0.22893 0.0371,-0.0763 0.0733,-0.15249 0.11007,-0.22892 0.0371,-0.0763 0.0736,-0.15289 0.11007,-0.22945 0.0371,-0.0763 0.0726,-0.15331 0.10904,-0.22996 0.0362,-0.0767 0.0721,-0.15354 0.108,-0.23047 0.0362,-0.0767 0.0719,-0.15399 0.10749,-0.231 0.0362,-0.0766 0.0707,-0.15398 0.10593,-0.23099 0.0354,-0.0773 0.0708,-0.15467 0.10594,-0.23203 0.64543,-1.43089 1.24075,-2.88339 1.78491,-4.35477 0.16815,-0.45468 0.29845,-0.92258 0.45682,-1.38079 0.18247,-0.52799 0.35667,-1.05867 0.52606,-1.59112 0.0335,-0.30612 -0.003,-0.6159 -0.10594,-0.90589 -0.24039,-0.36847 -0.59351,-0.64851 -1.00614,-0.79788 -0.21863,-0.0336 -0.44038,-0.0438 -0.65784,-0.0848 -0.0211,-0.006 -0.0409,-0.015 -0.062,-0.0207 -0.80986,-0.21738 -1.6052,-0.48229 -2.37918,-0.80047 -0.79413,-0.32647 -1.56722,-0.70505 -2.31355,-1.13327 -0.74645,-0.42806 -1.46302,-0.90434 -2.14561,-1.42523 -0.68259,-0.52089 -1.3314,-1.08612 -1.94148,-1.69292 -0.61013,-0.60677 -1.17919,-1.25243 -1.70378,-1.93218 -0.52458,-0.67976 -1.00431,-1.39386 -1.4366,-2.13786 -0.43233,-0.74401 -0.81537,-1.51497 -1.14618,-2.30735 -0.33082,-0.79238 -0.60954,-1.6065 -0.83458,-2.43706 -0.225,-0.8305 -0.3951,-1.67397 -0.50953,-2.52491 -0.11443,-0.85094 -0.17331,-1.70944 -0.1757,-2.56987 -0.002,-0.86047 0.0515,-1.71931 0.16123,-2.5709 0.10976,-0.8516 0.27517,-1.69625 0.49558,-2.52801 0.22031,-0.83187 0.49514,-1.64751 0.82165,-2.44171 0.32652,-0.79421 0.705,-1.56664 1.13327,-2.31304 0.42798,-0.74629 0.9039,-1.46318 1.42472,-2.14561 0.52082,-0.68243 1.08676,-1.33048 1.69343,-1.94045 0.60672,-0.61024 1.25194,-1.17959 1.93167,-1.70429 0.67973,-0.5247 1.39386,-1.00522 2.13785,-1.43763 0.74407,-0.43223 1.51494,-0.81446 2.30736,-1.14515 0.74199,-0.30966 1.5063,-0.56432 2.28203,-0.78135 0.0527,-0.0148 0.10218,-0.0389 0.15503,-0.0532 0.25513,-0.0496 0.51525,-0.0644 0.77204,-0.10387 0.0711,-0.024 0.14078,-0.0519 0.20878,-0.0837 0.15427,-0.0867 0.29656,-0.19341 0.42323,-0.3173 0.12665,-0.12372 0.23663,-0.26358 0.32711,-0.41599 0.0858,-0.14653 0.15302,-0.30331 0.19999,-0.46664 -0.20754,-0.65014 -0.42092,-1.29842 -0.64803,-1.942 -0.0547,-0.15514 -0.10018,-0.31345 -0.15606,-0.46819 -0.3761,-1.0423 -0.77778,-2.0754 -1.20458,-3.098 -0.42687,-1.02276 -0.87891,-2.03491 -1.35547,-3.03548 -0.47684,-1.00046 -0.97789,-1.98932 -1.50327,-2.96519 l -0.0403,-0.0755 -0.0403,-0.0749 -0.0403,-0.0754 -0.0408,-0.0744 -0.0398,-0.0755 -0.0413,-0.0744 -0.0413,-0.0744 -0.0408,-0.0749 -0.0419,-0.0749 -0.0413,-0.0749 -0.0408,-0.0749 -0.0413,-0.0749 -0.0408,-0.0744 -0.0408,-0.0744 -0.0418,-0.0739 -0.0413,-0.0749 -0.0419,-0.0744 -0.0419,-0.0739 -0.0424,-0.0744 -0.0424,-0.0739 -0.0424,-0.0744 -0.0424,-0.0739 -0.0424,-0.0739 -0.0424,-0.0744 -0.0429,-0.0739 -0.0429,-0.0734 -0.0429,-0.0739 -0.0424,-0.0734 -0.0434,-0.0729 -0.0424,-0.0744 -0.0434,-0.0729 -0.0434,-0.0739 -0.0439,-0.0734 -0.0429,-0.0734 -0.0439,-0.0734 -0.0439,-0.0729 -0.0434,-0.0734 -0.0439,-0.0729 -0.0444,-0.0729 c -0.57235,-0.949 -1.1682,-1.88417 -1.78645,-2.80396 -0.61836,-0.91969 -1.25909,-1.82373 -1.92185,-2.71198 -0.66244,-0.8882 -1.34683,-1.7602 -2.05207,-2.61483 -0.35791,-0.4337 -0.73628,-0.84972 -1.10484,-1.27434 -0.35792,-0.41235 -0.70551,-0.83353 -1.07332,-1.23713 -0.0986,-0.10525 -0.1999,-0.20804 -0.29921,-0.31265 -0.46894,-0.11357 -0.96287,-0.0551 -1.39268,0.16485 -0.23174,0.30393 -0.44643,0.62101 -0.69556,0.91106 -0.0751,0.0755 -0.16296,0.13656 -0.23926,0.21084 -0.53998,0.52562 -1.09682,1.0333 -1.69241,1.49293 -0.67975,0.52458 -1.39385,1.00483 -2.13785,1.43712 -0.74409,0.43231 -1.5149,0.8149 -2.30735,1.14567 -0.79246,0.33077 -1.60695,0.6096 -2.43758,0.83457 -0.8305,0.225 -1.67397,0.3951 -2.52491,0.50953 -0.85094,0.11443 -1.70944,0.17331 -2.56987,0.1757 -0.86047,0.002 -1.71931,-0.0515 -2.5709,-0.16123 -0.8516,-0.10976 -1.69624,-0.27567 -2.52802,-0.49609 -0.83177,-0.22029 -1.64706,-0.49467 -2.44119,-0.82114 -0.79413,-0.32647 -1.56721,-0.70506 -2.31355,-1.13326 -0.74643,-0.42807 -1.46297,-0.90392 -2.14561,-1.42472 -0.68264,-0.5208 -1.33134,-1.0862 -1.94148,-1.69292 -0.61013,-0.60677 -1.17919,-1.25243 -1.70377,-1.93219 -0.52459,-0.67975 -1.00483,-1.39384 -1.43713,-2.13785 -0.43225,-0.743983 -0.81492,-1.515014 -1.14566,-2.307353 -0.33074,-0.792338 -0.6096,-1.606039 -0.83458,-2.436543 -0.22506,-0.830608 -0.39506,-1.674372 -0.50953,-2.525428 -0.11446,-0.851055 -0.1733,-1.709829 -0.1757,-2.570385 -0.003,-0.860473 0.0515,-1.719307 0.16123,-2.570903 0.0818,-0.63429 0.22572,-1.258508 0.36897,-1.882572 0.0491,-0.213803 0.0704,-0.432676 0.12661,-0.644922 0.10382,-0.301134 0.20197,-0.497945 0.36329,-0.88315 0.0373,-0.31732 -3.9e-4,-0.639026 -0.11007,-0.938961 -0.19962,-0.256442 -0.45768,-0.460971 -0.75241,-0.596346 -0.48852,-0.109736 -0.75636,-0.174877 -1.13688,-0.251664 -0.0408,-0.008 -0.0821,-0.01326 -0.12299,-0.02119 -1.04673,-0.203194 -2.09761,-0.384402 -3.15278,-0.537951 -1.09659,-0.159791 -2.19747,-0.292631 -3.30058,-0.398426 -1.10326,-0.105611 -2.20895,-0.1843 -3.31607,-0.235644 -1.10703,-0.05127 -2.2151,-0.07546 -3.32332,-0.07235 z m 0.11783,42.286823 c 0.66611,-0.002 1.33205,0.0225 1.99626,0.0729 0.66441,0.0505 1.3265,0.12694 1.98489,0.22944 0.6583,0.10237 1.31236,0.23077 1.9606,0.38447 0.64816,0.1538 1.28983,0.33274 1.92392,0.53692 0.63429,0.20411 1.26056,0.43356 1.87688,0.68678 0.61606,0.25317 1.22212,0.53026 1.81643,0.83096 0.59461,0.30091 1.17698,0.62488 1.74615,0.97151 0.56778,0.34614 1.12198,0.71423 1.66088,1.10381 0.53992,0.38991 1.0643,0.8004 1.572,1.23145 0.50781,0.43125 0.99882,0.88262 1.47122,1.35237 0.47238,0.4697 0.92607,0.95765 1.36013,1.46296 0.43413,0.5053 0.84813,1.02749 1.24126,1.56528 0.39291,0.53803 0.76466,1.09111 1.11415,1.6583 0.0147,0.0236 0.0294,0.0476 0.0439,0.0713 0.0144,0.0236 0.0285,0.0476 0.0429,0.0713 0.0147,0.0236 0.0294,0.0472 0.0439,0.0708 0.0143,0.0238 0.0286,0.0479 0.0429,0.0718 0.0142,0.0238 0.0282,0.0476 0.0424,0.0713 0.0141,0.0238 0.0282,0.0475 0.0424,0.0713 0.0142,0.0239 0.0285,0.0478 0.0424,0.0718 0.0139,0.0239 0.0276,0.0483 0.0413,0.0724 0.0142,0.0239 0.0285,0.0479 0.0424,0.0718 0.0139,0.0239 0.0276,0.0483 0.0413,0.0723 0.014,0.0242 0.0281,0.0487 0.0419,0.0729 0.0135,0.0242 0.0269,0.0482 0.0403,0.0723 0.0138,0.0241 0.0272,0.0483 0.0408,0.0724 0.0133,0.0242 0.027,0.0486 0.0403,0.0729 0.0135,0.0242 0.0269,0.0488 0.0403,0.0729 0.0133,0.0242 0.0265,0.0486 0.0398,0.0729 0.0135,0.0243 0.0269,0.0491 0.0403,0.0734 0.013,0.0245 0.0259,0.049 0.0387,0.0734 0.0132,0.0243 0.0266,0.049 0.0398,0.0734 0.013,0.0245 0.0259,0.0489 0.0388,0.0734 0.0131,0.0243 0.0267,0.0489 0.0398,0.0734 0.0128,0.0245 0.0251,0.0494 0.0377,0.0739 0.0128,0.0248 0.0255,0.0495 0.0382,0.0744 0.013,0.0247 0.026,0.0493 0.0388,0.0739 0.304,0.59284 0.58475,1.19744 0.8413,1.8123 0.25665,0.61457 0.48894,1.2389 0.69659,1.87172 0.20747,0.63319 0.39011,1.27432 0.54726,1.92184 0.15727,0.64739 0.28882,1.3008 0.39481,1.95854 0.10612,0.65744 0.18657,1.31909 0.24081,1.98283 0.0542,0.66411 0.0823,1.32993 0.0842,1.99626 0.002,0.95257 -0.0485,1.90407 -0.15244,2.84943 -0.10397,0.94537 -0.26076,1.88454 -0.47026,2.81379 -0.20941,0.92932 -0.47073,1.8459 -0.78238,2.74453 -0.31165,0.89863 -0.6737,1.77969 -1.08469,2.63912 -0.0361,0.0744 -0.0716,0.14893 -0.108,0.22324 -0.0369,0.074 -0.0731,0.14829 -0.11007,0.22221 -0.037,0.0741 -0.0749,0.14802 -0.11266,0.22169 -0.0378,0.0736 -0.0768,0.14654 -0.11472,0.22014 -0.0388,0.0732 -0.0775,0.146 -0.11627,0.21911 -0.0397,0.0727 -0.0792,0.14584 -0.11886,0.21859 -0.0404,0.0721 -0.0809,0.1439 -0.1204,0.21652 -0.0406,0.072 -0.0822,0.1439 -0.12351,0.2155 -0.0415,0.0718 -0.0831,0.14297 -0.12506,0.21445 -0.042,0.0713 -0.0844,0.14233 -0.12661,0.21343 -0.0431,0.0707 -0.0862,0.14126 -0.12919,0.21187 -0.044,0.0701 -0.0877,0.14024 -0.13074,0.21084 -0.0439,0.0701 -0.0888,0.14005 -0.13332,0.20981 -0.0447,0.0695 -0.0905,0.13816 -0.13591,0.20722 -0.0457,0.0691 -0.0912,0.13848 -0.13746,0.20722 -0.0465,0.0684 -0.0927,0.13694 -0.13953,0.20516 -0.0473,0.0679 -0.0942,0.13594 -0.14159,0.2036 -0.0481,0.0674 -0.0955,0.1353 -0.14366,0.20257 -0.0482,0.0673 -0.0965,0.13407 -0.14521,0.20102 -0.0489,0.0667 -0.0977,0.13372 -0.14728,0.19999 -0.0497,0.0662 -0.0993,0.13249 -0.14934,0.19844 -0.0503,0.0658 -0.101,0.1311 -0.15193,0.19637 -0.0507,0.0653 -0.10165,0.13053 -0.15297,0.19534 -0.59192,0.74647 -1.22475,1.45877 -1.89549,2.1332 -0.67073,0.67443 -1.37966,1.31084 -2.12287,1.90686 -0.74312,0.59598 -1.51842,1.14955 -2.32233,1.65778 -0.80392,0.50823 -1.63628,0.97132 -2.49339,1.387 -0.85712,0.41565 -1.73659,0.78257 -2.63343,1.09915 -0.89685,0.31659 -1.81126,0.58286 -2.73937,0.79737 -0.92809,0.21451 -1.86694,0.37668 -2.81172,0.48576 -0.94477,0.10908 -1.89585,0.16532 -2.8484,0.16795 -0.95268,0.002 -1.90395,-0.0485 -2.84944,-0.15245 -0.94549,-0.10392 -1.88493,-0.26076 -2.814297,-0.47025 -0.929168,-0.20937 -1.845543,-0.47082 -2.744019,-0.78238 -0.898476,-0.31157 -1.779308,-0.67331 -2.638598,-1.08418 -0.859402,-0.41092 -1.694426,-0.86979 -2.50114,-1.37356 -0.806713,-0.50377 -1.585223,-1.05249 -2.33164,-1.64434 -0.746435,-0.592 -1.458816,-1.2252 -2.133204,-1.89601 -0.674388,-0.67081 -1.310892,-1.37959 -1.90686,-2.12287 -0.595922,-0.74302 -1.149586,-1.51802 -1.65778,-2.32182 -0.508194,-0.80379 -0.971328,-1.6364 -1.386995,-2.49339 -0.415657,-0.8571 -0.782576,-1.73606 -1.099158,-2.63291 -0.316582,-0.89685 -0.582851,-1.81178 -0.797367,-2.73988 -0.214596,-0.92813 -0.376601,-1.8669 -0.485759,-2.81172 -0.109157,-0.94482 -0.165263,-1.8958 -0.167948,-2.8484 -0.0026,-0.95269 0.0485,-1.90395 0.152445,-2.84944 0.103948,-0.94549 0.260765,-1.88546 0.470256,-2.81482 0.209356,-0.92916 0.470294,-1.84502 0.781864,-2.7435 0.311571,-0.89847 0.673843,-1.7793 1.084689,-2.6386 0.410949,-0.85948 0.86923,-1.69487 1.373042,-2.50165 0.503812,-0.80679 1.052943,-1.58517 1.644861,-2.33164 0.591793,-0.74634 1.22492,-1.45837 1.895492,-2.13269 0.670572,-0.67433 1.378818,-1.31143 2.121834,-1.90738 0.743123,-0.59597 1.51894,-1.14903 2.322856,-1.65726 0.803915,-0.50823 1.636276,-0.97133 2.493387,-1.387 v -5.1e-4 c 0.857261,-0.4156 1.736953,-0.78267 2.633948,-1.09916 0.896996,-0.3165 1.811629,-0.58245 2.739885,-0.79685 0.928009,-0.21454 1.866496,-0.37664 2.811196,-0.48576 0.9447,-0.10913 1.89593,-0.16527 2.84841,-0.16795 z"
       style="fill:#fffffc;fill-opacity:1;stroke:none;stroke-width:0.255209"
       id="path12"
       inkscape:export-filename="settings.svg"
       inkscape:export-xdpi="96"
       inkscape:export-ydpi="96" />
  </g>
  <g
     inkscape:groupmode="layer"
     id="layer3"
     inkscape:label="LOGO"
     style="display:none"
     sodipodi:insensitive="true"
     transform="translate(-33.05288,-82.272924)">
    <g
       id="g16"
       transform="translate(1.5313868)"
       style="display:none">
      <rect
         style="fill:#fffffc;fill-opacity:1;stroke:none;stroke-width:0.22205;stroke-opacity:1"
         id="rect12"
         width="36.010895"
         height="4.8493915"
         x="45.663067"
         y="132.20973" />
      <path
         sodipodi:type="star"
         style="opacity:0.6;fill:#fffffc;fill-opacity:1;stroke:none;stroke-width:0.266348;stroke-opacity:1"
         id="path15"
         inkscape:flatsided="true"
         sodipodi:sides="10"
         sodipodi:cx="71.464722"
         sodipodi:cy="169.47346"
         sodipodi:r1="26.771299"
         sodipodi:r2="12.415399"
         sodipodi:arg1="0.71793314"
         sodipodi:arg2="1.0320924"
         inkscape:rounded="0"
         inkscape:randomized="0"
         d="m 91.62798,187.08441 -14.202295,8.48828 -16.47918,-1.48074 -12.461579,-10.88417 -3.684078,-16.1302 6.500615,-15.21506 14.202295,-8.48828 16.47918,1.48074 12.46158,10.88417 3.684078,16.1302 z"
         transform="matrix(0.42957728,0.24801655,-0.24801655,0.42957728,93.006565,44.108044)"
         inkscape:transform-center-x="-2.4251e-06" />
      <text
         xml:space="preserve"
         style="font-size:4.23333px;font-family:'Times New Roman';-inkscape-font-specification:'Times New Roman, Normal';text-align:center;text-anchor:middle;fill:#fffffc;fill-opacity:1;stroke:none;stroke-width:0.266348;stroke-opacity:1"
         x="57.204018"
         y="142.00026"
         id="text12"><tspan
           sodipodi:role="line"
           id="tspan12"
           style="font-style:normal;font-variant:normal;font-weight:normal;font-stretch:normal;font-size:4.93889px;font-family:Sans;-inkscape-font-specification:'Sans, Normal';font-variant-ligatures:normal;font-variant-caps:normal;font-variant-numeric:normal;font-variant-east-asian:normal;stroke-width:0.266347"
           x="57.204018"
           y="142.00026">by FOLAS</tspan></text>
    </g>
    <path
       d="m 143.32097,121.41481 c -0.42305,-0.093 -0.86137,-0.17585 -1.32809,-0.23978 -0.5132,-0.0703 -1.05301,-0.12298 -1.61902,-0.15813 -0.56601,-0.0351 -1.15834,-0.0527 -1.77715,-0.0527 -0.48048,0 -0.95093,0.0155 -1.41077,0.047 -0.45983,0.0316 -0.90904,0.079 -1.34824,0.14211 -0.43919,0.0631 -0.86818,0.14248 -1.28674,0.23719 -0.41856,0.0947 -0.82682,0.20496 -1.22473,0.33125 -0.39792,0.12629 -0.78544,0.26847 -1.16272,0.42633 -0.37728,0.15786 -0.74407,0.33146 -1.10071,0.5209 -0.35664,0.18943 -0.70321,0.39446 -1.03921,0.61546 -0.336,0.22101 -0.66133,0.45798 -0.97669,0.71056 -0.31387,0.25258 -0.60851,0.51479 -0.88315,0.78703 -0.27463,0.27224 -0.52941,0.55456 -0.76481,0.84646 -0.2354,0.29189 -0.45133,0.59381 -0.6475,0.90537 -0.1314,0.20869 -0.24122,0.42793 -0.35502,0.64544 z"
       style="display:none;opacity:1;fill:#fffffc;stroke-width:0.22226"
       id="path24" />
    <path
       d="m 113.64164,131.52427 v -10.21695 h -4.24832 v 11.66389 z"
       style="display:none;opacity:1;fill:#fffffc;stroke-width:0.22226"
       id="path23" />
    <path
       d="m 95.273771,137.78022 v -4.54908 h 8.818069 v -2.87372 H 95.273771 V 124.195 h 9.567889 v -2.88768 H 91.024935 v 17.92036 z"
       style="display:none;opacity:1;fill:#fffffc;stroke-width:0.22226"
       id="path22" />
    <path
       d="m 143.32096,121.73033 -16.92403,5.7645 c -0.0561,0.10718 -0.12287,0.20902 -0.17466,0.31833 -0.15694,0.33121 -0.29468,0.67232 -0.41238,1.02319 -0.1177,0.35088 -0.21557,0.71158 -0.29404,1.08211 -0.0785,0.37053 -0.1375,0.75083 -0.17673,1.14101 -0.0392,0.39019 -0.0584,0.79008 -0.0584,1.19993 0,0.38125 0.0172,0.75328 0.0522,1.11621 0.035,0.36294 0.0872,0.71682 0.15709,1.06144 0.0699,0.34461 0.15765,0.68036 0.26252,1.00665 0.10487,0.3263 0.22707,0.64339 0.3669,0.95137 0.13983,0.30798 0.29702,0.60692 0.47181,0.89658 0.17478,0.28967 0.36696,0.56995 0.57671,0.8413 0.20974,0.27134 0.43743,0.53348 0.68213,0.78651 0.24469,0.25303 0.50685,0.49703 0.78651,0.73174 0.27966,0.23471 0.57062,0.45454 0.87333,0.65991 0.30272,0.20537 0.61681,0.39602 0.94258,0.57205 0.32577,0.17604 0.663,0.33752 1.01182,0.48421 0.34883,0.1467 0.70919,0.27901 1.08108,0.39636 0.37188,0.11736 0.75537,0.21998 1.15031,0.30799 0.39494,0.088 0.80157,0.16095 1.21957,0.21963 0.41799,0.0587 0.84775,0.10295 1.28881,0.13229 0.44105,0.0293 0.89343,0.0439 1.35754,0.0439 0.71699,0 1.40468,-0.0249 2.06292,-0.0749 0.65824,-0.05 1.28723,-0.12523 1.88671,-0.22531 0.29974,-0.05 0.5919,-0.10643 0.87695,-0.16898 0.28505,-0.0626 0.56266,-0.13113 0.83302,-0.20619 0.27036,-0.0751 0.53343,-0.15634 0.7891,-0.24391 0.25567,-0.0876 0.50419,-0.18156 0.74517,-0.28164 v -3.14502 c -0.22164,0.11437 -0.44837,0.22134 -0.68006,0.32142 -0.23168,0.10008 -0.46831,0.19327 -0.71003,0.27906 -0.24173,0.0858 -0.48876,0.16416 -0.74053,0.23564 -0.25176,0.0715 -0.50869,0.13608 -0.77049,0.19327 -0.26181,0.0572 -0.52862,0.10697 -0.80047,0.14986 -0.27185,0.0429 -0.54855,0.0789 -0.83044,0.10749 -0.28189,0.0286 -0.56848,0.0498 -0.86041,0.0641 -0.29193,0.0143 -0.58893,0.0217 -0.8909,0.0217 -0.32726,0 -0.64663,-0.0107 -0.95808,-0.0315 -0.31146,-0.0208 -0.61541,-0.0523 -0.91106,-0.094 -0.29565,-0.0417 -0.58315,-0.0935 -0.863,-0.15606 -0.27984,-0.0625 -0.55193,-0.13571 -0.81597,-0.21911 -0.26403,-0.0834 -0.52019,-0.17687 -0.76843,-0.28112 -0.24823,-0.10425 -0.48845,-0.21907 -0.72088,-0.34417 -0.23243,-0.1251 -0.45672,-0.26074 -0.67335,-0.40669 -0.21662,-0.14595 -0.4255,-0.30242 -0.62631,-0.46922 -0.20082,-0.16799 -0.38911,-0.34327 -0.56483,-0.52555 -0.17571,-0.18229 -0.33876,-0.37134 -0.48937,-0.56793 -0.15062,-0.19658 -0.28894,-0.40045 -0.41445,-0.61133 -0.12551,-0.21088 -0.23859,-0.42904 -0.339,-0.65422 -0.10041,-0.22518 -0.18824,-0.45713 -0.26355,-0.6966 -0.0753,-0.23947 -0.13789,-0.48624 -0.1881,-0.74001 -0.0502,-0.25377 -0.0875,-0.51483 -0.11265,-0.78289 -0.0251,-0.26807 -0.0377,-0.54343 -0.0377,-0.82579 0,-0.29667 0.013,-0.58588 0.0398,-0.86765 0.0268,-0.28177 0.0674,-0.55581 0.12092,-0.82269 0.0536,-0.26688 0.12018,-0.52626 0.20051,-0.77825 0.0803,-0.25198 0.17401,-0.49671 0.28112,-0.7338 0.1071,-0.23709 0.22785,-0.46665 0.36173,-0.68885 0.13388,-0.2222 0.28118,-0.4371 0.44183,-0.6444 0.16066,-0.20731 0.33451,-0.40704 0.52194,-0.59945 0.18743,-0.19242 0.38834,-0.37748 0.60254,-0.55501 0.2157,-0.17752 0.43922,-0.34386 0.67128,-0.49919 0.23205,-0.15533 0.47247,-0.29939 0.72089,-0.43253 0.24841,-0.13314 0.50519,-0.25544 0.76997,-0.36639 0.26479,-0.11095 0.53742,-0.21096 0.81856,-0.29972 0.28114,-0.0888 0.57066,-0.16598 0.86816,-0.23255 0.29751,-0.0666 0.60339,-0.12253 0.91726,-0.16691 0.31387,-0.0444 0.6356,-0.0776 0.96583,-0.0997 0.33024,-0.0222 0.66885,-0.0331 1.01544,-0.0331 0.52064,0 1.03027,0.0258 1.52859,0.077 0.49833,0.0512 0.9854,0.12801 1.46141,0.23048 0.47602,0.10246 0.94105,0.23026 1.39475,0.38395 0.4537,0.15369 0.89618,0.33303 1.32757,0.53795 v -3.37395 c -0.40759,-0.14059 -0.84186,-0.26353 -1.30225,-0.36897 -0.0417,-0.01 0.0421,0.009 0,0 z"
       style="font-weight:bold;font-size:27.3016px;font-family:'Yu Gothic UI';-inkscape-font-specification:'Yu Gothic UI, Bold';text-align:center;text-anchor:middle;display:none;fill:#fffffc;stroke-width:0.308769"
       id="path27"
       sodipodi:nodetypes="ccssssssssssssssssssssssscssccsssssssssscsssscsssssscsscssssscssscsscssssccccc" />
    <path
       d="m 113.64216,131.83927 -4.24884,1.44746 v 8.8377 h 14.1733 v -2.87372 h -9.92446 z"
       style="font-weight:bold;font-size:27.3016px;font-family:'Yu Gothic UI';-inkscape-font-specification:'Yu Gothic UI, Bold';text-align:center;text-anchor:middle;display:none;fill:#fffffc;stroke-width:0.308769"
       id="path26" />
    <path
       d="m 95.273769,138.09625 -4.24832,1.44694 v 2.58124 h 4.24832 z"
       style="font-weight:bold;font-size:27.3016px;font-family:'Yu Gothic UI';-inkscape-font-specification:'Yu Gothic UI, Bold';text-align:center;text-anchor:middle;display:none;fill:#fffffc;stroke-width:0.308769"
       id="path25" />
    <g
       id="g35"
       inkscape:export-filename=".\logo.svg"
       inkscape:export-xdpi="63.306984"
       inkscape:export-ydpi="63.306984">
      <g
         id="g33"
         inkscape:export-filename=".\logo.svg"
         inkscape:export-xdpi="63.306984"
         inkscape:export-ydpi="63.306984">
        <text
           xml:space="preserve"
           style="font-style:normal;font-variant:normal;font-weight:300;font-stretch:normal;font-size:9.51978px;font-family:'Yu Gothic UI';-inkscape-font-specification:'Yu Gothic UI, Light';font-variant-ligatures:normal;font-variant-caps:normal;font-variant-numeric:normal;font-variant-east-asian:normal;text-align:center;text-anchor:middle;opacity:1;fill:#fffffc;fill-opacity:1;stroke:none;stroke-width:0.0898431;stroke-opacity:1"
           x="111.64872"
           y="141.54776"
           id="text27"
           transform="scale(1.035764,0.96547085)"><tspan
             sodipodi:role="line"
             id="tspan27"
             style="font-style:normal;font-variant:normal;font-weight:300;font-stretch:normal;font-size:9.51978px;font-family:'Yu Gothic UI';-inkscape-font-specification:'Yu Gothic UI, Light';font-variant-ligatures:normal;font-variant-caps:normal;font-variant-numeric:normal;font-variant-east-asian:normal;stroke-width:0.0898431"
             x="111.64872"
             y="141.54776">technologies</tspan></text>
        <path
           d="m 93.903829,123.10411 -4.072103,1.6304 v 3.26336 h 4.072103 z"
           style="font-weight:bold;font-size:33.9205px;font-family:'Yu Gothic UI';-inkscape-font-specification:'Yu Gothic UI, Bold';text-align:center;text-anchor:middle;opacity:1;fill:#fffffc;stroke-width:0.320126"
           id="path33" />
        <path
           d="m 111.50896,116.05648 -4.07211,1.63039 v 10.311 h 13.5847 v -3.22306 h -9.51259 z"
           style="font-weight:bold;font-size:33.9205px;font-family:'Yu Gothic UI';-inkscape-font-specification:'Yu Gothic UI, Bold';text-align:center;text-anchor:middle;opacity:1;fill:#fffffc;stroke-width:0.320126"
           id="path32" />
        <path
           d="m 139.23129,104.95845 -15.24971,6.10506 c -0.14817,0.28904 -0.29194,0.58039 -0.41496,0.88418 -0.15042,0.37145 -0.282,0.75423 -0.39481,1.14773 -0.11281,0.3935 -0.20695,0.79782 -0.28215,1.21336 -0.0752,0.41555 -0.1319,0.84244 -0.1695,1.28003 -0.0376,0.43759 -0.0563,0.88602 -0.0563,1.34565 0,0.42758 0.0166,0.84458 0.0501,1.25161 0.0335,0.40702 0.0839,0.80414 0.15089,1.19062 0.067,0.38649 0.15063,0.76268 0.25115,1.12862 0.10051,0.36594 0.2179,0.72172 0.35192,1.06711 0.13402,0.3454 0.28516,0.68026 0.45268,1.00511 0.16753,0.32485 0.35139,0.6393 0.55242,0.94361 0.20103,0.30431 0.41917,0.59835 0.65371,0.88212 0.23454,0.28377 0.4854,0.5574 0.75344,0.82062 0.26804,0.26322 0.54754,0.5102 0.83768,0.74052 0.29014,0.23032 0.59106,0.44389 0.9033,0.64131 0.31224,0.19742 0.63563,0.3786 0.96997,0.54312 0.33434,0.16451 0.67967,0.31229 1.03611,0.4439 0.35644,0.13161 0.72424,0.24701 1.10277,0.34571 0.37854,0.0987 0.76777,0.18121 1.16841,0.24702 0.40063,0.0658 0.81233,0.11489 1.23507,0.14779 0.42273,0.0329 0.85637,0.0496 1.30121,0.0496 0.3436,0 0.68023,-0.007 1.00976,-0.0212 0.32952,-0.014 0.65245,-0.035 0.9679,-0.063 0.31544,-0.0281 0.62364,-0.0633 0.925,-0.10542 0.30137,-0.0421 0.59587,-0.0912 0.88315,-0.14728 0.28729,-0.0561 0.56757,-0.1195 0.84078,-0.18965 0.27321,-0.0701 0.53927,-0.14682 0.7984,-0.231 0.25913,-0.0842 0.51098,-0.17567 0.75603,-0.27388 0.24505,-0.0982 0.48319,-0.20351 0.71416,-0.31574 v -3.52744 c -0.21243,0.12827 -0.42957,0.24847 -0.65164,0.3607 -0.22206,0.11224 -0.44889,0.21644 -0.68057,0.31265 -0.23169,0.0962 -0.46821,0.18441 -0.70952,0.26458 -0.24131,0.0802 -0.48753,0.15239 -0.73846,0.21652 -0.25093,0.0641 -0.50684,0.12037 -0.76739,0.16847 -0.26056,0.0481 -0.52564,0.0883 -0.79582,0.12041 -0.27018,0.0321 -0.54547,0.0558 -0.82527,0.0718 -0.27981,0.016 -0.56427,0.0243 -0.8537,0.0243 -0.31366,0 -0.61977,-0.0117 -0.91829,-0.0351 -0.29851,-0.0234 -0.58944,-0.0587 -0.87281,-0.10542 -0.28337,-0.0468 -0.55912,-0.10503 -0.82734,-0.17518 -0.26822,-0.0701 -0.5288,-0.15193 -0.78187,-0.24546 -0.25307,-0.0935 -0.49846,-0.19883 -0.73639,-0.31574 -0.23792,-0.11692 -0.46865,-0.24573 -0.69143,-0.38603 -0.22277,-0.14029 -0.43781,-0.2921 -0.64543,-0.45578 -0.20763,-0.16368 -0.40749,-0.33901 -0.59997,-0.52607 -0.19247,-0.1884 -0.37315,-0.38468 -0.54157,-0.58911 -0.16841,-0.20443 -0.32486,-0.41722 -0.46922,-0.63769 -0.14436,-0.22046 -0.27658,-0.44873 -0.39687,-0.68523 -0.1203,-0.2365 -0.22881,-0.48127 -0.32505,-0.7338 -0.0962,-0.25254 -0.18,-0.51278 -0.25218,-0.78135 -0.0722,-0.26857 -0.13275,-0.54532 -0.18087,-0.82992 -0.0481,-0.28461 -0.0839,-0.57735 -0.108,-0.87799 -0.0241,-0.30063 -0.0362,-0.60885 -0.0362,-0.92552 0,-0.33271 0.0131,-0.65707 0.0387,-0.97307 0.0257,-0.316 0.0639,-0.62364 0.11524,-0.92294 0.0513,-0.2993 0.11576,-0.59022 0.19275,-0.87282 0.077,-0.28259 0.16658,-0.55731 0.26924,-0.8232 0.10265,-0.2659 0.21791,-0.52337 0.34623,-0.77256 0.12832,-0.2492 0.26977,-0.48995 0.42375,-0.72244 0.15398,-0.23249 0.32058,-0.45652 0.50023,-0.67231 0.17964,-0.21579 0.37243,-0.4231 0.57774,-0.62218 0.20673,-0.19909 0.42095,-0.38598 0.64337,-0.56018 0.22242,-0.1742 0.45281,-0.33592 0.69091,-0.48524 0.2381,-0.14931 0.48416,-0.2864 0.73794,-0.41083 0.25379,-0.12443 0.5155,-0.23635 0.78497,-0.33589 0.26946,-0.0995 0.54684,-0.18631 0.83199,-0.26097 0.28515,-0.0747 0.57766,-0.1373 0.8785,-0.18707 0.30083,-0.0498 0.60952,-0.0867 0.92604,-0.11162 0.31652,-0.0249 0.64087,-0.0372 0.97307,-0.0372 0.2495,0 0.49636,0.007 0.74052,0.0212 0.24416,0.0144 0.48569,0.0359 0.7245,0.0646 0.23882,0.0287 0.47502,0.0649 0.70849,0.108 0.23346,0.0431 0.46434,0.0934 0.69246,0.1509 0.22812,0.0575 0.45367,0.12196 0.67645,0.19378 0.22277,0.0718 0.44299,0.15102 0.66042,0.2372 0.21743,0.0862 0.43181,0.17954 0.64389,0.28008 0.21208,0.10055 0.42165,0.20807 0.62838,0.32298 v -3.78426 c -0.19532,-0.0788 -0.39715,-0.15272 -0.60513,-0.2217 -0.20798,-0.069 -0.42222,-0.13259 -0.64285,-0.19172 -0.22064,-0.0591 -0.44729,-0.11351 -0.68058,-0.16278 -0.0552,-0.0117 -0.11413,-0.0204 -0.17002,-0.0315 z"
           style="font-weight:bold;font-size:33.9205px;font-family:'Yu Gothic UI';-inkscape-font-specification:'Yu Gothic UI, Bold';text-align:center;text-anchor:middle;opacity:1;fill:#fffffc;stroke-width:0.320126"
           id="path31" />
        <path
           d="m 124.74226,109.78968 12.68243,-5.07669 c -0.10098,-0.009 -0.19125,-0.0261 -0.29404,-0.0336 -0.5425,-0.0394 -1.11015,-0.0589 -1.70326,-0.0589 -0.46051,0 -0.91112,0.0178 -1.35185,0.0532 -0.44074,0.0354 -0.87199,0.0884 -1.29295,0.15917 -0.42095,0.0708 -0.83183,0.15939 -1.233,0.26561 -0.40117,0.10623 -0.79218,0.22993 -1.17357,0.37156 -0.38139,0.14163 -0.75305,0.30096 -1.11466,0.47801 -0.36161,0.17704 -0.71341,0.37201 -1.05523,0.58446 -0.34183,0.21244 -0.67377,0.44254 -0.99581,0.69039 -0.32204,0.24786 -0.63411,0.51359 -0.93637,0.79685 -0.30084,0.28327 -0.58272,0.57732 -0.84595,0.88264 -0.24608,0.28542 -0.47253,0.58259 -0.68574,0.88728 z"
           style="font-weight:bold;font-size:33.9205px;font-family:'Yu Gothic UI';-inkscape-font-specification:'Yu Gothic UI, Bold';text-align:center;text-anchor:middle;opacity:1;fill:#d7d7d7;fill-opacity:1;stroke-width:0.320126"
           id="path30" />
        <path
           d="m 107.43685,116.71794 4.07211,-1.63039 v -10.08259 h -4.07211 z"
           style="font-weight:bold;font-size:33.9205px;font-family:'Yu Gothic UI';-inkscape-font-specification:'Yu Gothic UI, Bold';text-align:center;text-anchor:middle;opacity:1;fill:#d7d7d7;fill-opacity:1;stroke-width:0.320126"
           id="path29" />
        <path
           d="m 89.831726,123.76557 4.072103,-1.63039 v -3.75791 h 8.451681 v -3.22254 h -8.451681 v -6.91069 h 9.170501 v -3.23908 H 89.831726 Z"
           style="font-weight:bold;font-size:33.9205px;font-family:'Yu Gothic UI';-inkscape-font-specification:'Yu Gothic UI, Bold';text-align:center;text-anchor:middle;opacity:1;fill:#d7d7d7;fill-opacity:1;stroke-width:0.320126"
           id="path28" />
      </g>
      <g
         id="g34">
        <circle
           style="opacity:0.6;fill:#d7d7d7;fill-opacity:1;stroke:none;stroke-width:0.266348;stroke-opacity:1"
           id="path34"
           cx="130.28583"
           cy="116.67065"
           r="0.74641281" />
        <circle
           style="opacity:0.6;fill:#d7d7d7;fill-opacity:1;stroke:none;stroke-width:0.266348;stroke-opacity:1"
           id="path34-9"
           cx="132.02177"
           cy="116.67065"
           r="0.74641281" />
        <circle
           style="opacity:0.6;fill:#d7d7d7;fill-opacity:1;stroke:none;stroke-width:0.266348;stroke-opacity:1"
           id="path34-3"
           cx="134.15517"
           cy="116.67065"
           r="0.74641281" />
        <circle
           style="opacity:0.6;fill:#d7d7d7;fill-opacity:1;stroke:none;stroke-width:0.266348;stroke-opacity:1"
           id="path34-95"
           cx="137.23013"
           cy="116.67065"
           r="0.74641281" />
        <circle
           style="opacity:0.6;fill:#d7d7d7;fill-opacity:1;stroke:none;stroke-width:0.266348;stroke-opacity:1"
           id="path34-95-5"
           cx="141.32986"
           cy="116.67065"
           r="0.74641281" />
      </g>
    </g>
  </g>
  <g
     inkscape:groupmode="layer"
     id="layer4"
     inkscape:label="ADD"
     style="display:none"
     sodipodi:insensitive="true"
     transform="translate(-33.05288,-82.272924)">
    <path
       d="m 94.982007,118.01478 v 20.46697 H 74.515039 v 20.0365 h 20.466968 v 20.46697 h 20.035983 v -20.46697 h 20.46697 v -20.0365 h -20.46697 v -20.46697 z"
       style="opacity:1;fill:#ff7f11;fill-opacity:1;stroke-width:0.149824"
       id="path35"
       inkscape:export-filename=".\add_button.svg"
       inkscape:export-xdpi="63.306984"
       inkscape:export-ydpi="63.306984" />
    <path
       d="m 104.99979,95.56626 a 52.933842,52.933842 0 0 0 -7.532871,0.538468 52.933842,52.933842 0 0 0 -7.379911,1.605587 52.933842,52.933842 0 0 0 -7.076571,2.639115 52.933842,52.933842 0 0 0 -6.628536,3.61993 52.933842,52.933842 0 0 0 -6.046143,4.52583 52.933842,52.933842 0 0 0 -5.340242,5.34076 52.933842,52.933842 0 0 0 -4.526339,6.04562 52.933842,52.933842 0 0 0 -3.619417,6.62905 52.933842,52.933842 0 0 0 -2.639632,7.07606 52.933842,52.933842 0 0 0 -1.60507,7.37991 52.933842,52.933842 0 0 0 -0.538985,7.53339 52.933842,52.933842 0 0 0 0.538985,7.53339 52.933842,52.933842 0 0 0 1.60507,7.37991 52.933842,52.933842 0 0 0 2.639632,7.07606 52.933842,52.933842 0 0 0 3.619417,6.62905 52.933842,52.933842 0 0 0 4.526339,6.04614 52.933842,52.933842 0 0 0 5.340242,5.34024 52.933842,52.933842 0 0 0 6.046143,4.52582 52.933842,52.933842 0 0 0 6.628536,3.61994 52.933842,52.933842 0 0 0 7.076571,2.63911 52.933842,52.933842 0 0 0 7.379911,1.60559 52.933842,52.933842 0 0 0 7.532871,0.53847 52.933842,52.933842 0 0 0 7.53339,-0.53847 52.933842,52.933842 0 0 0 7.37991,-1.60559 52.933842,52.933842 0 0 0 7.07657,-2.63911 52.933842,52.933842 0 0 0 6.62854,-3.61994 52.933842,52.933842 0 0 0 6.04614,-4.52582 52.933842,52.933842 0 0 0 5.34025,-5.34024 52.933842,52.933842 0 0 0 4.52633,-6.04614 52.933842,52.933842 0 0 0 3.61942,-6.62905 52.933842,52.933842 0 0 0 2.63912,-7.07606 52.933842,52.933842 0 0 0 1.60558,-7.37991 52.933842,52.933842 0 0 0 0.53899,-7.53339 52.933842,52.933842 0 0 0 -0.0641,-2.59726 52.933842,52.933842 0 0 0 -0.1912,-2.59105 52.933842,52.933842 0 0 0 -0.31781,-2.57866 52.933842,52.933842 0 0 0 -0.44442,-2.56005 52.933842,52.933842 0 0 0 -0.56896,-2.53473 52.933842,52.933842 0 0 0 -0.69298,-2.50424 52.933842,52.933842 0 0 0 -0.81494,-2.46703 52.933842,52.933842 0 0 0 -0.93534,-2.42363 52.933842,52.933842 0 0 0 -1.05265,-2.37556 52.933842,52.933842 0 0 0 -1.1684,-2.32079 52.933842,52.933842 0 0 0 -1.28054,-2.26033 52.933842,52.933842 0 0 0 -1.38958,-2.19521 52.933842,52.933842 0 0 0 -1.49604,-2.1239 52.933842,52.933842 0 0 0 -1.59886,-2.04846 52.933842,52.933842 0 0 0 -1.69706,-1.96732 52.933842,52.933842 0 0 0 -1.7911,-1.88154 52.933842,52.933842 0 0 0 -1.88206,-1.79162 52.933842,52.933842 0 0 0 -1.96732,-1.69705 52.933842,52.933842 0 0 0 -2.04794,-1.59836 52.933842,52.933842 0 0 0 -2.12442,-1.49603 52.933842,52.933842 0 0 0 -2.19469,-1.39009 52.933842,52.933842 0 0 0 -2.26085,-1.28055 52.933842,52.933842 0 0 0 -2.32079,-1.1684 52.933842,52.933842 0 0 0 -2.37505,-1.052649 52.933842,52.933842 0 0 0 -2.42414,-0.934826 52.933842,52.933842 0 0 0 -2.46703,-0.814938 52.933842,52.933842 0 0 0 -2.50372,-0.692981 52.933842,52.933842 0 0 0 -2.53525,-0.569474 52.933842,52.933842 0 0 0 -2.56005,-0.444417 52.933842,52.933842 0 0 0 -2.57814,-0.31781 52.933842,52.933842 0 0 0 -2.59105,-0.191203 52.933842,52.933842 0 0 0 -2.59778,-0.06356 z m 0,8.6372 a 44.296394,44.296394 0 0 1 2.39831,0.0651 44.296394,44.296394 0 0 1 2.39106,0.19482 44.296394,44.296394 0 0 1 2.37712,0.3235 44.296394,44.296394 0 0 1 2.35593,0.45216 44.296394,44.296394 0 0 1 2.32854,0.5793 44.296394,44.296394 0 0 1 2.2934,0.70383 44.296394,44.296394 0 0 1 2.25154,0.82734 44.296394,44.296394 0 0 1 2.204,0.94826 44.296394,44.296394 0 0 1 2.14922,1.06557 44.296394,44.296394 0 0 1 2.08825,1.18081 44.296394,44.296394 0 0 1 2.02158,1.29242 44.296394,44.296394 0 0 1 1.9482,1.3994 44.296394,44.296394 0 0 1 1.87017,1.50275 44.296394,44.296394 0 0 1 1.78542,1.60249 44.296394,44.296394 0 0 1 1.69654,1.69602 44.296394,44.296394 0 0 1 1.60197,1.78594 44.296394,44.296394 0 0 1 1.50327,1.86965 44.296394,44.296394 0 0 1 1.39939,1.94872 44.296394,44.296394 0 0 1 1.29192,2.02106 44.296394,44.296394 0 0 1 1.1808,2.08877 44.296394,44.296394 0 0 1 1.06609,2.14922 44.296394,44.296394 0 0 1 0.94774,2.20348 44.296394,44.296394 0 0 1 0.82734,2.25206 44.296394,44.296394 0 0 1 0.70435,2.2934 44.296394,44.296394 0 0 1 0.57878,2.32802 44.296394,44.296394 0 0 1 0.45217,2.35593 44.296394,44.296394 0 0 1 0.32401,2.37712 44.296394,44.296394 0 0 1 0.1943,2.39107 44.296394,44.296394 0 0 1 0.0651,2.3983 44.296394,44.296394 0 0 1 -0.54518,6.92929 44.296394,44.296394 0 0 1 -1.62264,6.75928 44.296394,44.296394 0 0 1 -2.66031,6.42183 44.296394,44.296394 0 0 1 -3.63182,5.92625 44.296394,44.296394 0 0 1 -4.51393,5.28547 44.296394,44.296394 0 0 1 -5.28547,4.51445 44.296394,44.296394 0 0 1 -5.92677,3.63182 44.296394,44.296394 0 0 1 -6.42183,2.65979 44.296394,44.296394 0 0 1 -6.75876,1.62264 44.296394,44.296394 0 0 1 -6.92981,0.5457 44.296394,44.296394 0 0 1 -6.92929,-0.5457 44.296394,44.296394 0 0 1 -6.758761,-1.62264 44.296394,44.296394 0 0 1 -6.42183,-2.65979 44.296394,44.296394 0 0 1 -5.92677,-3.63182 44.296394,44.296394 0 0 1 -5.285466,-4.51445 44.296394,44.296394 0 0 1 -4.514453,-5.28547 44.296394,44.296394 0 0 1 -3.631819,-5.92625 44.296394,44.296394 0 0 1 -2.659786,-6.42183 44.296394,44.296394 0 0 1 -1.62264,-6.75928 44.296394,44.296394 0 0 1 -0.545187,-6.92929 44.296394,44.296394 0 0 1 0.545187,-6.92929 44.296394,44.296394 0 0 1 1.62264,-6.75928 44.296394,44.296394 0 0 1 2.659786,-6.42131 44.296394,44.296394 0 0 1 3.631819,-5.92677 44.296394,44.296394 0 0 1 4.514453,-5.28547 44.296394,44.296394 0 0 1 5.285466,-4.51445 44.296394,44.296394 0 0 1 5.92677,-3.63182 44.296394,44.296394 0 0 1 6.42183,-2.65979 44.296394,44.296394 0 0 1 6.758761,-1.62264 44.296394,44.296394 0 0 1 6.92929,-0.5457 z"
       style="opacity:1;fill:#ff7f11;fill-opacity:1;stroke-width:0.226184"
       id="path37" />
  </g>
  <g
     inkscape:groupmode="layer"
     id="layer5"
     inkscape:label="EXIT"
     style="display:none"
     sodipodi:insensitive="true"
     transform="translate(-33.05288,-82.272924)">
    <path
       d="m 83.834159,103.93094 v 71.58462 a 14,14 45 0 0 14,14 h 46.180481 a 14,14 135 0 0 14,-14 v -4.43395 a 1,1 45 0 0 -1,-1 h -8.22314 a 1,1 135 0 0 -1,1 v 4.21132 a 4,4 135 0 1 -4,4 H 98.056791 a 4,4 45 0 1 -4,-4 v -71.13935 a 4,4 135 0 1 4,-4 H 143.7915 a 4,4 45 0 1 4,4 l 0,4.21184 a 1,1 45 0 0 1,1 h 8.22314 a 1,1 135 0 0 1,-1 v -4.43448 a 14,14 45 0 0 -14,-13.999995 H 97.834159 a 14,14 135 0 0 -14,13.999995 z"
       style="display:inline;opacity:1;fill:#ffffff;fill-opacity:1;stroke-width:0.229878"
       id="path42"
       inkscape:path-effect="#path-effect44"
       inkscape:original-d="M 83.834159,89.930945 V 189.51556 H 158.01464 V 170.08161 H 147.7915 v 9.21132 H 94.056791 V 100.15358 H 147.7915 v 9.21184 h 10.22314 V 89.930945 Z"
       inkscape:export-filename=".\exit.svg"
       inkscape:export-xdpi="63.306984"
       inkscape:export-ydpi="63.306984" />
    <path
       d="m 147.59898,123.67015 0,4.41591 a 3,3 135 0 1 -3,3 h -17.37194 a 3,3 135 0 0 -3,3 v 11.27439 a 3,3 45 0 0 3,3 h 17.37194 a 3,3 45 0 1 3,3 l 0,4.4159 a 1.4150648,1.4150648 25.252702 0 0 2.31505,1.09198 l 19.25928,-15.87307 a 1.648356,1.648356 90 0 0 0,-2.54402 l -19.25928,-15.87307 a 1.4150648,1.4150648 154.7473 0 0 -2.31505,1.09198 z"
       style="display:inline;opacity:1;fill:#ffffff;fill-opacity:1;stroke-width:0.266348"
       id="path45"
       sodipodi:nodetypes="cccccccc"
       inkscape:path-effect="#path-effect45"
       inkscape:original-d="m 147.59898,120.67015 v 10.41591 h -23.37194 v 17.27439 h 23.37194 v 10.4159 l 23.1177,-19.0531 z" />
  </g>
  <g
     inkscape:groupmode="layer"
     id="layer6"
     inkscape:label="TOOLS"
     style="display:none"
     sodipodi:insensitive="true"
     transform="translate(-33.05288,-82.272924)">
    <path
       d="m 73.456498,74.815588 c -1.293562,-3.6e-5 -2.583074,0.145227 -3.84421,0.433049 -1.261128,0.287756 -2.485982,0.716264 -3.651456,1.277441 -1.165355,0.5613 -2.264014,1.251732 -3.275253,2.058273 -1.01126,0.80646 -1.928773,1.723973 -2.735233,2.735233 -0.806573,1.011401 -1.497006,2.110234 -2.058272,3.275769 -0.309712,0.722632 -0.569737,1.465586 -0.778248,2.223637 h -1.042313 c -0.36504,0 -0.721282,0.03698 -1.065051,0.10697 -0.343769,0.06999 -0.675099,0.172906 -0.990638,0.305925 -0.315538,0.133018 -0.615204,0.296153 -0.895552,0.485241 -0.280348,0.189089 -0.541599,0.40414 -0.779798,0.642339 -0.238198,0.238198 -0.453766,0.499449 -0.642854,0.779797 -0.189089,0.280348 -0.351707,0.580014 -0.484725,0.895552 -0.133019,0.315539 -0.235936,0.646869 -0.305925,0.990638 C 50.83698,91.369221 50.8,91.725463 50.8,92.090503 c 0,0.36504 0.03698,0.721282 0.10697,1.065051 0.06999,0.343769 0.172906,0.675099 0.305925,0.990637 0.133018,0.315539 0.295636,0.615205 0.484725,0.895553 0.189088,0.280348 0.404656,0.541082 0.642854,0.779281 0.238199,0.238198 0.49945,0.453766 0.779798,0.642854 0.280348,0.189089 0.580014,0.351707 0.895552,0.484725 0.315539,0.133019 0.646869,0.236452 0.990638,0.306442 0.343769,0.06999 0.700011,0.10697 1.065051,0.10697 h 1.04283 c 0.208343,0.758041 0.468194,1.500989 0.777731,2.223637 0.561302,1.165357 1.251728,2.264007 2.058272,3.275247 0.806434,1.01145 1.723941,1.92913 2.735233,2.73576 1.011268,0.80636 2.109917,1.49661 3.275253,2.05775 1.165456,0.56136 2.390302,0.99004 3.651456,1.27796 1.261141,0.28782 2.550643,0.43308 3.84421,0.43305 1.293395,0 2.582721,-0.14527 3.843693,-0.43305 1.261155,-0.28792 2.486,-0.7166 3.651457,-1.27796 1.165335,-0.56114 2.263984,-1.25139 3.275252,-2.05775 1.011474,-0.8066 1.929155,-1.72428 2.735751,-2.73576 0.806363,-1.01126 1.496615,-2.10991 2.057755,-3.275247 0.309713,-0.722635 0.569736,-1.465583 0.778247,-2.223637 h 65.730357 c 0.36504,0 0.72128,-0.03698 1.06505,-0.10697 0.34377,-0.06999 0.6751,-0.173422 0.99064,-0.306442 0.31554,-0.133019 0.6152,-0.295635 0.89555,-0.484725 0.28035,-0.189089 0.5416,-0.404655 0.7798,-0.642854 0.2382,-0.2382 0.45324,-0.498931 0.64233,-0.779281 0.18909,-0.28035 0.35223,-0.580012 0.48525,-0.895553 0.13302,-0.31554 0.23593,-0.646866 0.30592,-0.990637 0.07,-0.343771 0.10697,-0.700009 0.10697,-1.065051 0,-0.365042 -0.037,-0.72128 -0.10697,-1.065051 -0.07,-0.343771 -0.1729,-0.675097 -0.30592,-0.990638 -0.13302,-0.31554 -0.29616,-0.615202 -0.48525,-0.895552 -0.18909,-0.28035 -0.40413,-0.541598 -0.64233,-0.779797 -0.2382,-0.2382 -0.49945,-0.453249 -0.7798,-0.642339 -0.28035,-0.189089 -0.58001,-0.352222 -0.89555,-0.485241 -0.31554,-0.13302 -0.64687,-0.235935 -0.99064,-0.305925 -0.34377,-0.06999 -0.70001,-0.10697 -1.06505,-0.10697 H 89.900972 c -0.110182,-0.350352 -0.231514,-0.697112 -0.363802,-1.03973 -0.157432,-0.400936 -0.329811,-0.795856 -0.516764,-1.183907 -0.186872,-0.388245 -0.38821,-0.769375 -0.603581,-1.142566 -0.215386,-0.372927 -0.44465,-0.73768 -0.687296,-1.093473 -0.24257,-0.356014 -0.49838,-0.70284 -0.766878,-1.03973 -0.268636,-0.336815 -0.549785,-0.663473 -0.842843,-0.979268 -0.293053,-0.315655 -0.597819,-0.620248 -0.913639,-0.913123 -0.315796,-0.293057 -0.642453,-0.574207 -0.979269,-0.842842 -0.336721,-0.268488 -0.683374,-0.524298 -1.039213,-0.766879 -0.355962,-0.242657 -0.720888,-0.471921 -1.09399,-0.687296 -0.373013,-0.215534 -0.75397,-0.417045 -1.142049,-0.604098 -0.388059,-0.186778 -0.782978,-0.358984 -1.183907,-0.516247 -0.401052,-0.15744 -0.807866,-0.299825 -1.219564,-0.426848 -0.411676,-0.12697 -0.827971,-0.238499 -1.247986,-0.334346 -0.41991,-0.09589 -0.843272,-0.176048 -1.269173,-0.240296 -0.425923,-0.06422 -0.854112,-0.112483 -1.283643,-0.144694 -0.429538,-0.03211 -0.86014,-0.04814 -1.290877,-0.04806 z m 0,8.67699 c 0.300173,1.49e-4 0.600141,0.01602 0.898653,0.04754 0.298526,0.03131 0.595217,0.07822 0.888835,0.14056 0.293599,0.06246 0.583735,0.140255 0.869198,0.233061 0.285521,0.09274 0.565997,0.200379 0.840258,0.322461 0.274105,0.122002 0.541644,0.258272 0.801502,0.408244 0.260053,0.150171 0.512068,0.313868 0.754993,0.490409 0.242784,0.176456 0.476169,0.36551 0.699182,0.566374 0.223176,0.200783 0.435689,0.413124 0.636653,0.636137 0.135623,0.155807 0.26559,0.316456 0.389641,0.481624 0.06009,0.07173 0.119013,0.144426 0.176733,0.218075 0.176351,0.242769 0.339873,0.494608 0.489893,0.754476 0.150164,0.260017 0.286606,0.527725 0.40876,0.802018 0.122083,0.274263 0.229718,0.554736 0.322461,0.840259 0.09281,0.285464 0.170601,0.575596 0.233061,0.869197 0.06234,0.29362 0.109254,0.590307 0.14056,0.888835 0.03135,0.298523 0.04705,0.598488 0.04702,0.898653 3.6e-5,0.902143 -0.141917,1.798681 -0.420646,2.656685 -0.278764,0.858035 -0.690848,1.666855 -1.221114,2.396753 -0.07138,0.07399 -0.144085,0.146693 -0.218075,0.218075 -0.480523,0.636789 -1.047345,1.203612 -1.684134,1.684135 -0.729897,0.530265 -1.538721,0.94235 -2.396753,1.221111 -0.858003,0.27873 -1.754545,0.42069 -2.656686,0.42065 -0.902141,4e-5 -1.798682,-0.14192 -2.656685,-0.42065 -0.858033,-0.278761 -1.666857,-0.690846 -2.396753,-1.221111 -0.63679,-0.480523 -1.203612,-1.047346 -1.684135,-1.684135 -0.07399,-0.07138 -0.146693,-0.144086 -0.218075,-0.218075 -0.530262,-0.729893 -0.942351,-1.538723 -1.221114,-2.396753 -0.278902,-0.857971 -0.421032,-1.75452 -0.421163,-2.656685 1.31e-4,-0.902165 0.142261,-1.798714 0.421163,-2.656685 0.278763,-0.85803 0.690852,-1.66686 1.221114,-2.396753 0.07138,-0.07399 0.144086,-0.146694 0.218075,-0.218075 0.480521,-0.636787 1.047348,-1.203614 1.684135,-1.684135 0.729893,-0.530263 1.538724,-0.942351 2.396753,-1.221114 0.857971,-0.278903 1.75452,-0.421032 2.656685,-0.421163 z"
       style="fill:#ffffff;stroke-width:0.266348"
       id="path10"
       inkscape:export-filename="..\..\Desktop\FOLAS\FLC\src\GUI\UI\Icons\settings.svg"
       inkscape:export-xdpi="96"
       inkscape:export-ydpi="96" />
    <path
       d="m 128.74615,108.37736 c -1.2934,1e-5 -2.58273,0.14527 -3.8437,0.43305 -1.26113,0.28776 -2.48598,0.71627 -3.65145,1.27744 -1.16536,0.56131 -2.26401,1.25173 -3.27526,2.05828 -1.01144,0.80643 -1.92912,1.72394 -2.73575,2.73523 -0.80639,1.01143 -1.49665,2.11026 -2.05775,3.27577 -0.30971,0.72263 -0.56974,1.46558 -0.77825,2.22364 H 55.271045 c -0.365039,0 -0.721283,0.037 -1.065051,0.10697 -0.343769,0.07 -0.675099,0.1729 -0.990638,0.30592 -0.315538,0.13302 -0.615204,0.29615 -0.895552,0.48524 -0.280348,0.18909 -0.541083,0.40414 -0.779281,0.64234 -0.238198,0.2382 -0.453766,0.49945 -0.642855,0.7798 -0.189088,0.28035 -0.351706,0.58001 -0.484724,0.89555 -0.133019,0.31554 -0.236453,0.64687 -0.306442,0.99064 -0.06999,0.34377 -0.106453,0.70001 -0.106453,1.06505 0,0.36504 0.03646,0.72128 0.106453,1.06505 0.06999,0.34377 0.173423,0.6751 0.306442,0.99064 0.133018,0.31554 0.295636,0.6152 0.484724,0.89555 0.189089,0.28035 0.404657,0.54108 0.642855,0.77928 0.238198,0.2382 0.498933,0.45377 0.779281,0.64286 0.280348,0.18908 0.580014,0.3517 0.895552,0.48472 0.315539,0.13302 0.646869,0.23645 0.990638,0.30644 0.343768,0.07 0.700012,0.10697 1.065051,0.10697 h 57.132945 c 0.20851,0.75806 0.46854,1.501 0.77825,2.22364 0.56114,1.16534 1.25139,2.26398 2.05775,3.27525 0.8066,1.01148 1.72428,1.92915 2.73575,2.73575 1.01128,0.80637 2.10992,1.49661 3.27526,2.05776 1.16546,0.56136 2.39029,0.99003 3.65145,1.27795 1.26098,0.28779 2.5503,0.43305 3.8437,0.43305 1.29357,4e-5 2.58306,-0.14522 3.84421,-0.43305 1.26098,-0.28796 2.48564,-0.71663 3.65094,-1.27795 1.16552,-0.56111 2.26433,-1.25136 3.27577,-2.05776 1.01129,-0.80663 1.92879,-1.7243 2.73523,-2.73575 0.80655,-1.01125 1.49697,-2.10989 2.05827,-3.27525 0.30972,-0.72264 0.56974,-1.46558 0.77825,-2.22364 h 9.64024 c 0.36504,0 0.72076,-0.037 1.06453,-0.10697 0.34377,-0.07 0.67562,-0.17342 0.99116,-0.30644 0.31554,-0.13302 0.6152,-0.29564 0.89555,-0.48472 0.28035,-0.18909 0.54108,-0.40466 0.77928,-0.64286 0.2382,-0.2382 0.45376,-0.49893 0.64285,-0.77928 0.18909,-0.28035 0.35171,-0.58001 0.48473,-0.89555 0.13302,-0.31554 0.23645,-0.64687 0.30644,-0.99064 0.07,-0.34377 0.10645,-0.70001 0.10645,-1.06505 0,-0.36504 -0.0365,-0.72128 -0.10645,-1.06505 -0.07,-0.34377 -0.17342,-0.6751 -0.30644,-0.99064 -0.13302,-0.31554 -0.29564,-0.6152 -0.48473,-0.89555 -0.18909,-0.28035 -0.40465,-0.5416 -0.64285,-0.7798 -0.2382,-0.2382 -0.49893,-0.45325 -0.77928,-0.64234 -0.28035,-0.18909 -0.58001,-0.35222 -0.89555,-0.48524 -0.31554,-0.13302 -0.64739,-0.23593 -0.99116,-0.30592 -0.34377,-0.07 -0.69949,-0.10697 -1.06453,-0.10697 h -9.53844 c -0.11018,-0.35036 -0.23151,-0.69712 -0.3638,-1.03973 -0.15726,-0.40093 -0.32947,-0.79585 -0.51625,-1.18391 -0.18687,-0.38825 -0.38821,-0.76938 -0.60358,-1.14257 -0.21556,-0.37293 -0.44499,-0.73768 -0.68781,-1.09347 -0.24257,-0.35602 -0.49838,-0.70284 -0.76688,-1.03973 -0.26864,-0.33682 -0.54979,-0.66347 -0.84284,-0.97927 -0.29289,-0.31564 -0.59748,-0.62024 -0.91313,-0.91312 -0.31579,-0.29306 -0.64245,-0.57421 -0.97926,-0.84284 -0.3369,-0.2685 -0.68372,-0.52431 -1.03973,-0.76688 -0.3558,-0.24265 -0.72055,-0.47191 -1.09348,-0.6873 -0.37318,-0.21554 -0.75431,-0.41705 -1.14256,-0.6041 -0.38806,-0.18677 -0.78298,-0.35898 -1.18391,-0.51624 -0.40088,-0.15743 -0.80752,-0.29982 -1.21905,-0.42685 -0.41168,-0.12697 -0.82797,-0.2385 -1.24798,-0.33435 -0.41991,-0.0959 -0.84327,-0.17605 -1.26918,-0.24029 -0.42609,-0.0642 -0.85445,-0.1125 -1.28416,-0.1447 -0.42954,-0.0321 -0.86014,-0.0481 -1.29087,-0.0481 z m 0,8.67699 c 0.30017,1.5e-4 0.60014,0.016 0.89865,0.0476 0.29853,0.0313 0.59522,0.0782 0.88883,0.14056 0.2936,0.0625 0.58374,0.14025 0.8692,0.23306 0.28552,0.0927 0.566,0.20038 0.84026,0.32246 0.27428,0.12198 0.54199,0.25825 0.80202,0.40824 0.25988,0.15019 0.51172,0.31388 0.75447,0.49041 0.24297,0.17644 0.47652,0.3655 0.6997,0.56637 0.223,0.2008 0.43534,0.41314 0.63614,0.63614 0.13562,0.15581 0.26559,0.31646 0.38964,0.48163 0.0601,0.0717 0.11901,0.14442 0.17673,0.21807 0.17653,0.24276 0.34023,0.4946 0.49041,0.75448 0.14999,0.26002 0.28626,0.52773 0.40825,0.80201 0.12208,0.27427 0.22972,0.55474 0.32246,0.84026 0.0928,0.28547 0.1706,0.5756 0.23306,0.8692 0.0623,0.29362 0.10925,0.59031 0.14056,0.88884 0.0315,0.29851 0.0474,0.59847 0.0475,0.89865 -1.3e-4,0.90217 -0.14226,1.79871 -0.42116,2.65668 -0.27877,0.85804 -0.69085,1.66686 -1.22112,2.39676 -0.0714,0.074 -0.14408,0.14669 -0.21807,0.21807 -0.48053,0.63679 -1.04734,1.20361 -1.68414,1.68414 -0.72989,0.53026 -1.53871,0.94235 -2.39675,1.22111 -0.858,0.27873 -1.75454,0.42068 -2.65668,0.42065 -0.90215,3e-5 -1.79868,-0.14192 -2.65669,-0.42065 -0.85803,-0.27876 -1.66685,-0.69085 -2.39675,-1.22111 -0.63679,-0.48053 -1.20361,-1.04735 -1.68414,-1.68414 -0.074,-0.0714 -0.14669,-0.14408 -0.21807,-0.21807 -0.53026,-0.7299 -0.94235,-1.53873 -1.22112,-2.39676 -0.27872,-0.858 -0.42068,-1.75454 -0.42064,-2.65668 -4e-5,-0.90214 0.14192,-1.79869 0.42064,-2.65669 0.27877,-0.85803 0.69086,-1.66686 1.22112,-2.39675 0.0714,-0.074 0.14408,-0.14669 0.21807,-0.21807 0.48053,-0.63679 1.04735,-1.20362 1.68414,-1.68414 0.72989,-0.53026 1.53872,-0.94235 2.39675,-1.22111 0.85797,-0.27891 1.75452,-0.42104 2.65669,-0.42117 z"
       style="fill:#ffffff;stroke-width:0.235687"
       id="path11" />
    <path
       d="m 78.127014,141.93914 c -1.293565,-4e-5 -2.583072,0.14523 -3.84421,0.43305 -1.261131,0.28776 -2.48598,0.71626 -3.651456,1.27744 -1.165358,0.5613 -2.264012,1.25173 -3.275253,2.05827 -1.011262,0.80646 -1.928771,1.72397 -2.735233,2.73524 -0.806575,1.0114 -1.497005,2.11023 -2.058272,3.27576 -0.309712,0.72264 -0.569737,1.46559 -0.778248,2.22364 h -5.712829 c -0.365039,0 -0.721283,0.037 -1.065051,0.10697 -0.343769,0.07 -0.675099,0.17291 -0.990638,0.30593 -0.315538,0.13301 -0.615204,0.29615 -0.895552,0.48524 -0.280348,0.18909 -0.5416,0.40414 -0.779798,0.64234 -0.238198,0.23819 -0.453766,0.49945 -0.642854,0.77979 -0.189089,0.28035 -0.351707,0.58002 -0.484725,0.89556 -0.133019,0.31553 -0.235936,0.64686 -0.305925,0.99063 -0.06999,0.34377 -0.10697,0.70002 -0.10697,1.06505 0,0.36504 0.03698,0.72129 0.10697,1.06506 0.06999,0.34376 0.172906,0.67509 0.305925,0.99063 0.133018,0.31554 0.295636,0.61521 0.484725,0.89556 0.189088,0.28034 0.404656,0.54159 0.642854,0.77979 0.238198,0.2382 0.49945,0.45325 0.779798,0.64234 0.280348,0.18909 0.580014,0.35222 0.895552,0.48524 0.315539,0.13302 0.646869,0.23594 0.990638,0.30593 0.343768,0.07 0.700012,0.10697 1.065051,0.10697 h 5.712829 c 0.208513,0.75805 0.468534,1.501 0.778248,2.22363 0.56127,1.16555 1.251692,2.26436 2.058272,3.27577 0.806466,1.01127 1.723965,1.92877 2.735233,2.73524 1.011272,0.80636 2.109913,1.49661 3.275253,2.05775 1.165461,0.56136 2.390297,0.99004 3.651456,1.27796 1.261146,0.28782 2.550637,0.43309 3.84421,0.43305 1.2934,0 2.582716,-0.14526 3.843693,-0.43305 1.26116,-0.28792 2.485995,-0.7166 3.651457,-1.27796 1.16534,-0.56114 2.26398,-1.25139 3.275252,-2.05775 1.011449,-0.80644 1.929123,-1.72394 2.735751,-2.73524 0.806399,-1.01143 1.496647,-2.11025 2.057755,-3.27577 0.309714,-0.72263 0.569735,-1.46558 0.778247,-2.22363 h 61.059841 c 0.36504,0 0.72128,-0.037 1.06505,-0.10697 0.34377,-0.07 0.6751,-0.17291 0.99064,-0.30593 0.31554,-0.13302 0.6152,-0.29615 0.89555,-0.48524 0.28035,-0.18909 0.5416,-0.40414 0.7798,-0.64234 0.2382,-0.2382 0.45325,-0.49944 0.64233,-0.77979 0.18909,-0.28035 0.35223,-0.58002 0.48525,-0.89556 0.13302,-0.31554 0.23593,-0.64686 0.30592,-0.99063 0.07,-0.34378 0.10697,-0.70001 0.10697,-1.06506 0,-0.36504 -0.037,-0.72128 -0.10697,-1.06505 -0.07,-0.34377 -0.1729,-0.67509 -0.30592,-0.99063 -0.13302,-0.31554 -0.29616,-0.61521 -0.48525,-0.89556 -0.18908,-0.28035 -0.40413,-0.54159 -0.64233,-0.77979 -0.2382,-0.2382 -0.49945,-0.45325 -0.7798,-0.64234 -0.28035,-0.18909 -0.58001,-0.35222 -0.89555,-0.48524 -0.31554,-0.13302 -0.64687,-0.23594 -0.99064,-0.30593 -0.34377,-0.07 -0.70001,-0.10697 -1.06505,-0.10697 H 94.571488 c -0.110183,-0.35035 -0.231514,-0.69711 -0.363802,-1.03973 -0.157433,-0.40094 -0.329811,-0.79585 -0.516764,-1.18391 -0.186872,-0.38824 -0.38821,-0.76937 -0.603581,-1.14256 -0.215387,-0.37293 -0.444649,-0.73768 -0.687296,-1.09347 -0.242571,-0.35602 -0.49838,-0.70284 -0.766878,-1.03973 -0.268636,-0.33682 -0.549785,-0.66348 -0.842843,-0.97927 -0.293054,-0.31566 -0.597818,-0.62025 -0.913639,-0.91313 -0.315796,-0.29305 -0.642453,-0.5742 -0.979269,-0.84284 -0.336721,-0.26849 -0.683373,-0.5243 -1.039213,-0.76688 -0.355963,-0.24265 -0.720887,-0.47192 -1.09399,-0.68729 -0.373014,-0.21554 -0.75397,-0.41705 -1.142049,-0.6041 -0.38806,-0.18678 -0.782977,-0.35898 -1.183907,-0.51625 -0.401053,-0.15744 -0.807865,-0.29982 -1.219564,-0.42685 -0.411677,-0.12697 -0.82797,-0.23849 -1.247986,-0.33434 -0.419911,-0.0959 -0.843271,-0.17605 -1.269173,-0.2403 -0.425924,-0.0642 -0.854111,-0.11248 -1.283643,-0.14469 -0.429539,-0.0321 -0.860139,-0.0481 -1.290877,-0.0481 z m 0,8.67751 c 0.300164,-3e-5 0.600131,0.0157 0.898653,0.047 0.298527,0.0313 0.595216,0.0782 0.888835,0.14056 0.2936,0.0625 0.583734,0.14026 0.869198,0.23306 0.285521,0.0927 0.565996,0.20038 0.840258,0.32246 0.274116,0.12217 0.541654,0.25862 0.801502,0.40876 0.260042,0.15001 0.512056,0.31353 0.754992,0.4899 0.242785,0.17645 0.476169,0.36551 0.699183,0.56637 0.223176,0.20078 0.435689,0.41312 0.636653,0.63614 0.135623,0.1558 0.265589,0.31645 0.389641,0.48162 0.06009,0.0717 0.119013,0.14443 0.176733,0.21808 0.17635,0.24277 0.339874,0.49461 0.489893,0.75447 0.150164,0.26002 0.286606,0.52773 0.40876,0.80202 0.122083,0.27426 0.229718,0.55474 0.322461,0.84026 0.09281,0.28546 0.170601,0.5756 0.233061,0.8692 0.06234,0.29362 0.109254,0.5903 0.14056,0.88883 0.03135,0.29852 0.04705,0.59849 0.04703,0.89865 3.6e-5,0.90215 -0.141918,1.79869 -0.420646,2.65669 -0.278764,0.85803 -0.690849,1.66686 -1.221114,2.39675 -0.07138,0.074 -0.144086,0.1467 -0.218075,0.21808 -0.480525,0.63679 -1.047342,1.20361 -1.684135,1.68413 -0.729899,0.53027 -1.538716,0.94235 -2.396752,1.22112 -0.858007,0.27873 -1.754541,0.42068 -2.656686,0.42064 -0.902144,4e-5 -1.798679,-0.14191 -2.656685,-0.42064 -0.858036,-0.27877 -1.666854,-0.69085 -2.396753,-1.22112 -0.636792,-0.48052 -1.20361,-1.04734 -1.684135,-1.68413 -0.07399,-0.0714 -0.146694,-0.14409 -0.218075,-0.21808 -0.530262,-0.72989 -0.942351,-1.53872 -1.221114,-2.39675 -0.278902,-0.85797 -0.421032,-1.75452 -0.421163,-2.65669 1.31e-4,-0.90216 0.142261,-1.79871 0.421163,-2.65668 0.278763,-0.85803 0.690852,-1.66686 1.221114,-2.39675 0.07138,-0.074 0.144086,-0.1467 0.218075,-0.21808 0.480522,-0.63679 1.047347,-1.20361 1.684135,-1.68413 0.729895,-0.53027 1.538722,-0.94235 2.396753,-1.22112 0.858001,-0.27873 1.754546,-0.42068 2.656685,-0.42064 z"
       style="fill:#ffffff;stroke-width:0.235687"
       id="path13" />
  </g>
  <g
     inkscape:groupmode="layer"
     id="layer7"
     inkscape:label="APP_LOGO"
     style="display:inline"
     transform="translate(-33.05288,-82.272924)">
    <rect
       style="fill:#4d4d4d;stroke-width:0.266348"
       id="rect1"
       width="110.83492"
       height="110.83492"
       x="33.052879"
       y="82.272926"
       ry="12.035559"
       inkscape:export-filename="app_logo.png"
       inkscape:export-xdpi="96"
       inkscape:export-ydpi="96" />
    <g
       id="g1"
       transform="translate(-5.6782455)">
      <ellipse
         style="fill:none;stroke:#ffffff;stroke-width:6.54182;stroke-dasharray:none;stroke-opacity:1"
         id="path1"
         cx="82.363884"
         cy="137.39996"
         rx="23.910549"
         ry="40.346031" />
      <ellipse
         style="display:inline;fill:none;stroke:#ffffff;stroke-width:6.54182;stroke-dasharray:none;stroke-opacity:1"
         id="path1-9"
         cx="106.33633"
         cy="137.39996"
         rx="23.910549"
         ry="40.346031" />
    </g>
    <path
       style="fill:none;stroke:#ffffff;stroke-width:5.33413;stroke-dasharray:none;stroke-opacity:1"
       d="m 44.039841,178.6839 h 88.505019 0.23477 -0.23477"
       id="path2" />
  </g>
  <g
     inkscape:groupmode="layer"
     id="layer8"
     inkscape:label="POWERMETER"
     style="display:none"
     sodipodi:insensitive="true"
     transform="translate(-33.05288,-82.272924)">
    <path
       style="fill:#ffffff;stroke:none;stroke-width:4.66601;stroke-dasharray:none;stroke-opacity:1"
       d="M 78.859855,80.476573 62.692687,131.31334 h 9.34103 L 56.22582,171.91089 102.93097,108.6793 H 86.404534 L 105.98477,80.476573 Z"
       id="path4"
       sodipodi:nodetypes="cccccccc"
       inkscape:export-filename="..\..\Desktop\FOLAS\FLC\src\GUI\UI\Icons\powermeter.svg"
       inkscape:export-xdpi="96"
       inkscape:export-ydpi="96" />
  </g>
</svg>
